<svg xmlns="http://www.w3.org/2000/svg" viewBox="0 0 775.73 133.81"><defs><style>.cls-1{fill:none;stroke:#fedd2e;stroke-miterlimit:10;stroke-width:2px;}.cls-2{fill:#fedd2e;}.cls-3{fill:#034556;}</style></defs><title>Asset 43mdpi</title><g id="Layer_2" data-name="Layer 2"><g id="Layer_1-2" data-name="Layer 1"><rect class="cls-1" x="612.35" y="1" width="162.38" height="131.74" rx="20.68"/><line class="cls-1" x1="14.9" y1="132.81" x2="600.1" y2="132.81"/><path class="cls-2" d="M26.6,88.7l21.12,5.79a4.33,4.33,0,0,1,1.9,7.26l-15.57,15.4L18.48,132.54a4.34,4.34,0,0,1-7.25-2L5.69,109.37.15,88.19a4.33,4.33,0,0,1,5.34-5.28Z"/><path class="cls-3" d="M707.94,26.93a3.86,3.86,0,0,1,1.95,3.77c-.11,4.76,0,9.54,0,14.31,0,2.49-.83,3.32-3.27,3.34h-4c-2.46,0-3.38-1-3.4-3.48,0-2.34,0-4.68,0-7.13H667.22V102h31.94c0-2.43,0-4.83,0-7.23,0-2.55.9-3.4,3.46-3.43,1.47,0,2.93,0,4.39,0,1.94.06,2.81.9,2.82,2.82,0,5.21,0,10.43,0,15.65a2.52,2.52,0,0,1-2.7,2.77l-4.54.24h-46.2V26.93Z"/><path class="cls-3" d="M741.93,70.08c-.52.44-1.09.83-1.57,1.3Q731.18,80.56,722,89.75c-.38.39-.69.85-1,1.28l-.44-.24V75.09H686.61c-2.74,0-3.5-.77-3.51-3.48,0-1.27,0-2.54,0-3.82,0-2.39.91-3.29,3.34-3.36.76,0,1.53,0,2.29,0h31.75V48.49c.78.73,1.26,1.16,1.71,1.61l18.34,18.36c.44.44.93.83,1.4,1.24Z"/></g></g></svg>